<svg width="101" height="100" viewBox="0 0 101 100" fill="none" xmlns="http://www.w3.org/2000/svg">
<path d="M71.168 50.7071C71.5585 50.3166 71.5585 49.6834 71.168 49.2929L64.804 42.9289C64.4135 42.5384 63.7804 42.5384 63.3898 42.9289C62.9993 43.3195 62.9993 43.9526 63.3898 44.3431L69.0467 50L63.3898 55.6569C62.9993 56.0474 62.9993 56.6805 63.3898 57.0711C63.7804 57.4616 64.4135 57.4616 64.804 57.0711L71.168 50.7071ZM30.4401 51H70.4609V49H30.4401V51Z" fill="white"/>
<path d="M99.4766 50C99.4766 77.0615 77.5274 99 50.4506 99C23.3738 99 1.42456 77.0615 1.42456 50C1.42456 22.9385 23.3738 1 50.4506 1C77.5274 1 99.4766 22.9385 99.4766 50Z" stroke="white" stroke-width="2"/>
</svg>
